<mxfile host="app.diagrams.net" modified="2022-01-25T12:47:06.950Z" agent="5.0 (Windows NT 10.0; Win64; x64) AppleWebKit/537.36 (KHTML, like Gecko) Chrome/97.0.4692.99 Safari/537.36" etag="7J_24pQEv1KcLFisoa0E" version="16.4.5" type="github">
  <diagram id="zls0-v9GnCH75Q_ydFOd" name="Page-1">
    <mxGraphModel dx="782" dy="379" grid="1" gridSize="10" guides="1" tooltips="1" connect="1" arrows="1" fold="1" page="1" pageScale="1" pageWidth="850" pageHeight="1100" math="0" shadow="0">
      <root>
        <mxCell id="0" />
        <mxCell id="1" parent="0" />
        <mxCell id="cNqe3Ttgqb81FqH2NfWE-2" value="" style="whiteSpace=wrap;html=1;aspect=fixed;sketch=1;" parent="1" vertex="1">
          <mxGeometry x="110" y="50" width="180" height="180" as="geometry" />
        </mxCell>
        <mxCell id="cNqe3Ttgqb81FqH2NfWE-1" value="" style="rounded=1;whiteSpace=wrap;html=1;sketch=1;" parent="1" vertex="1">
          <mxGeometry x="140" y="150" width="120" height="60" as="geometry" />
        </mxCell>
        <mxCell id="cNqe3Ttgqb81FqH2NfWE-6" value="User Space" style="text;html=1;strokeColor=none;fillColor=none;align=center;verticalAlign=middle;whiteSpace=wrap;rounded=0;glass=0;sketch=1;" parent="1" vertex="1">
          <mxGeometry x="140" y="60" width="120" height="30" as="geometry" />
        </mxCell>
        <mxCell id="cNqe3Ttgqb81FqH2NfWE-48" value="LXC" style="rounded=1;whiteSpace=wrap;html=1;sketch=1;fillColor=#f8cecc;strokeColor=#b85450;" parent="1" vertex="1">
          <mxGeometry x="140" y="100" width="120" height="30" as="geometry" />
        </mxCell>
        <mxCell id="d4WCtIkLHUZo1yUL4gTc-31" value="process" style="rounded=1;whiteSpace=wrap;html=1;sketch=1;fillColor=#f8cecc;strokeColor=#b85450;" vertex="1" parent="1">
          <mxGeometry x="140" y="165" width="120" height="30" as="geometry" />
        </mxCell>
        <mxCell id="cNqe3Ttgqb81FqH2NfWE-43" value="" style="whiteSpace=wrap;html=1;aspect=fixed;sketch=1;glass=0;rounded=1;" parent="1" vertex="1">
          <mxGeometry x="400" y="50" width="180" height="180" as="geometry" />
        </mxCell>
        <mxCell id="cNqe3Ttgqb81FqH2NfWE-44" value="Kernel Space" style="text;html=1;strokeColor=none;fillColor=none;align=center;verticalAlign=middle;whiteSpace=wrap;rounded=0;glass=0;sketch=1;" parent="1" vertex="1">
          <mxGeometry x="430" y="60.00333333333333" width="120" height="40" as="geometry" />
        </mxCell>
        <mxCell id="d4WCtIkLHUZo1yUL4gTc-33" value="" style="rounded=1;whiteSpace=wrap;html=1;sketch=1;" vertex="1" parent="1">
          <mxGeometry x="430" y="150" width="120" height="60" as="geometry" />
        </mxCell>
        <mxCell id="d4WCtIkLHUZo1yUL4gTc-39" style="edgeStyle=orthogonalEdgeStyle;rounded=0;orthogonalLoop=1;jettySize=auto;html=1;exitX=0.5;exitY=0;exitDx=0;exitDy=0;entryX=0.5;entryY=1;entryDx=0;entryDy=0;" edge="1" parent="1" source="d4WCtIkLHUZo1yUL4gTc-34" target="d4WCtIkLHUZo1yUL4gTc-37">
          <mxGeometry relative="1" as="geometry" />
        </mxCell>
        <mxCell id="d4WCtIkLHUZo1yUL4gTc-34" value="kernel Service" style="rounded=1;whiteSpace=wrap;html=1;sketch=1;fillColor=#f8cecc;strokeColor=#b85450;" vertex="1" parent="1">
          <mxGeometry x="430" y="165" width="120" height="30" as="geometry" />
        </mxCell>
        <mxCell id="d4WCtIkLHUZo1yUL4gTc-35" value="Container" style="text;html=1;strokeColor=none;fillColor=none;align=center;verticalAlign=middle;whiteSpace=wrap;rounded=0;sketch=1;" vertex="1" parent="1">
          <mxGeometry x="140" y="143" width="60" height="30" as="geometry" />
        </mxCell>
        <mxCell id="d4WCtIkLHUZo1yUL4gTc-36" value="Namespace" style="text;html=1;strokeColor=none;fillColor=none;align=center;verticalAlign=middle;whiteSpace=wrap;rounded=0;sketch=1;" vertex="1" parent="1">
          <mxGeometry x="430" y="143" width="60" height="30" as="geometry" />
        </mxCell>
        <mxCell id="d4WCtIkLHUZo1yUL4gTc-37" value="Kernel Service" style="rounded=1;whiteSpace=wrap;html=1;sketch=1;fillColor=#f8cecc;strokeColor=#b85450;" vertex="1" parent="1">
          <mxGeometry x="430" y="100" width="120" height="30" as="geometry" />
        </mxCell>
        <mxCell id="d4WCtIkLHUZo1yUL4gTc-38" style="edgeStyle=orthogonalEdgeStyle;rounded=0;orthogonalLoop=1;jettySize=auto;html=1;exitX=1;exitY=0.5;exitDx=0;exitDy=0;entryX=0;entryY=0.5;entryDx=0;entryDy=0;" edge="1" parent="1" source="d4WCtIkLHUZo1yUL4gTc-31" target="d4WCtIkLHUZo1yUL4gTc-34">
          <mxGeometry relative="1" as="geometry" />
        </mxCell>
        <mxCell id="d4WCtIkLHUZo1yUL4gTc-40" value="system call" style="edgeLabel;html=1;align=center;verticalAlign=middle;resizable=0;points=[];" vertex="1" connectable="0" parent="d4WCtIkLHUZo1yUL4gTc-38">
          <mxGeometry x="-0.1686" y="-3" relative="1" as="geometry">
            <mxPoint as="offset" />
          </mxGeometry>
        </mxCell>
      </root>
    </mxGraphModel>
  </diagram>
</mxfile>
